<svg width="71" height="88" viewBox="0 0 71 88" fill="none" xmlns="http://www.w3.org/2000/svg">
<path fill-rule="evenodd" clip-rule="evenodd" d="M23.1434 85.0116L17.3307 75.0761C16.9557 74.519 16.3932 74.1476 15.7369 74.1476H2.79883L20.1765 47.0938L25.5205 48.0223L29.6457 55.5435C30.4895 57.3077 32.5521 58.0506 34.4271 57.3077L38.3648 55.5435L40.2399 58.7934L23.1434 85.0116Z" fill="white"/>
<path fill-rule="evenodd" clip-rule="evenodd" d="M19.4673 45.4814L26.4666 46.6976L30.951 54.8737L30.9686 54.9105C31.4502 55.9176 32.6528 56.4176 33.8588 55.9541L38.9729 53.6629L41.9602 58.8405L23.0749 87.8019L16.0914 75.8655C16.0146 75.7591 15.9388 75.6948 15.8808 75.6598C15.8229 75.6249 15.778 75.6151 15.736 75.6151H0.111328L19.4673 45.4814ZM20.8839 48.7063L5.48452 72.6803H15.736C16.9928 72.6803 17.9687 73.3976 18.5471 74.2569L18.573 74.2953L23.2102 82.2215L38.5178 58.7466L37.7549 57.4244L34.9967 58.6602L34.9667 58.6721C32.4449 59.6711 29.554 58.701 28.3402 56.2164L24.5726 49.3473L20.8839 48.7063Z" fill="#FB6900"/>
<path fill-rule="evenodd" clip-rule="evenodd" d="M52.7457 74.4921L46.6961 85.1222L25.5389 54.2138C25.4413 53.9239 25.3437 53.7306 25.1486 53.5373L23.002 49.7685L23.685 49.4785L31.686 53.344C32.2714 53.6339 32.8569 53.7306 33.4423 53.7306C34.8083 53.7306 36.1744 53.0541 36.8574 51.7978L41.2482 43.9702L47.1026 42.9072L67.8696 73.5258H54.4045C53.7214 73.5258 53.0384 73.9123 52.7457 74.4921Z" fill="white"/>
<path fill-rule="evenodd" clip-rule="evenodd" d="M47.7819 41.293L70.6392 74.9934H54.4057C54.335 74.9934 54.2452 75.0154 54.1641 75.0623C54.0819 75.1098 54.0568 75.1538 54.0569 75.1537L54.0404 75.1863L46.8121 87.8877L24.2143 54.8749L24.1494 54.6821C24.129 54.6215 24.1155 54.5879 24.1082 54.5711L23.9743 54.4386L20.9121 49.0622L23.7254 47.8681L32.332 52.0261L32.3385 52.0293C32.6766 52.1967 33.028 52.2634 33.4436 52.2634C34.3584 52.2634 35.1821 51.8097 35.5695 51.0972L35.5741 51.0887L40.3076 42.6501L47.7819 41.293ZM42.1913 45.2908L38.1428 52.5083C37.1626 54.3021 35.2577 55.1982 33.4436 55.1982C32.6904 55.1982 31.8734 55.0723 31.043 54.6627L26.1265 52.2874L26.3422 52.666C26.5917 52.9557 26.7441 53.2502 26.8562 53.5388L46.5828 82.3571L51.4566 73.793C52.0351 72.6869 53.2473 72.0586 54.4057 72.0586H65.1025L46.4258 44.522L42.1913 45.2908Z" fill="#FB6900"/>
<path fill-rule="evenodd" clip-rule="evenodd" d="M34.8071 57.7076L26.0724 62.3722L21.2705 53.7707L11.3762 53.0175L12.0316 43.2099L4.11914 37.278L10.0238 29.3783L6.6053 20.1509L15.8845 16.6672L18.0453 7.07408L27.7531 9.11238L34.8071 2.19922L41.8612 9.11238L51.5689 7.07408L53.7297 16.6672L63.009 20.1509L59.5905 29.3783L65.4951 37.278L57.5827 43.2099L58.2381 53.0175L48.3438 53.7707L43.5419 62.3722L34.8071 57.7076Z" fill="white"/>
<path fill-rule="evenodd" clip-rule="evenodd" d="M34.807 0.144531L42.3276 7.51493L52.6826 5.34074L54.9871 15.5718L64.8924 19.2906L61.2437 29.1392L67.5476 37.573L59.0998 43.9064L59.799 54.3702L49.2408 55.1739L44.1209 64.345L34.807 59.371L25.4931 64.345L20.3732 55.1739L9.81501 54.3702L10.5143 43.9064L2.06641 37.573L8.37028 29.1392L4.72161 19.2906L14.627 15.5718L16.9315 5.34074L27.2864 7.51493L34.807 0.144531ZM34.807 4.2537L28.2195 10.7096L19.159 8.80721L17.1418 17.7624L8.48873 21.0111L11.6771 29.6172L6.17161 36.9827L13.5487 42.5133L12.9371 51.6646L22.1675 52.3672L26.6515 60.3993L34.807 56.0439L42.9625 60.3993L47.4465 52.3672L56.6769 51.6646L56.0653 42.5133L63.4424 36.9827L57.937 29.6172L61.1253 21.0111L52.4722 17.7624L50.455 8.80721L41.3945 10.7096L34.807 4.2537Z" fill="#FB6900"/>
</svg>
